# xmcd
#
# Track frame offsets:
# 150
# 16813
# 31882
# 45438
# 62423
# 78565
# 112248
# 126888
# 152258
# 171376
# 188980
# 213662
# 228139
# 241926
# 259301
# 272824
# 290753
# 308014
# 321705
# 338082
#
# Disc length: 4737 seconds
#
#
# Revision: 0
# Processed by: cddbd v1.4PL0 Copyright (c) Steve Scherf et al.
# Submitted via: FreeRIP 2.11 
#
DISCID=20127f14
DTITLE=Marc Anthony - 
DYEAR=1900
DGENRE=Ballad
TTITLE0=1
TTITLE1=2
TTITLE2=3
TTITLE3=4
TTITLE4=5
TTITLE5=6
TTITLE6=7
TTITLE7=8
TTITLE8=9
TTITLE9=11
TTITLE10=22
TTITLE11=33
TTITLE12=44
TTITLE13=55
TTITLE14=66
TTITLE15=77
TTITLE16=88
TTITLE17=99
TTITLE18=78
TTITLE19=89
EXTD=
EXTT0=
EXTT1=
EXTT2=
EXTT3=
EXTT4=
EXTT5=
EXTT6=
EXTT7=
EXTT8=
EXTT9=
EXTT10=
EXTT11=
EXTT12=
EXTT13=
EXTT14=
EXTT15=
EXTT16=
EXTT17=
EXTT18=
EXTT19=
PLAYORDER=
